<svg xmlns="http://www.w3.org/2000/svg" version="1.1" xmlns:xlink="http://www.w3.org/1999/xlink" width="512" height="512" x="0" y="0" viewBox="0 0 60 60" style="enable-background:new 0 0 512 512" xml:space="preserve"><g><path fill="#e4f0ff" d="M53 9v26.05L33.35 43h-6.7L7 35.05V9l1-1h44z" opacity="1" data-original="#e4f0ff"></path><path fill="#6f79b2" d="M53 4v5H7V4a3 3 0 0 1 3-3h40a3 3 0 0 1 3 3z" opacity="1" data-original="#6f79b2"></path><circle cx="14" cy="46" r="13" fill="#eb7180" opacity="1" data-original="#eb7180"></circle><circle cx="46" cy="46" r="13" fill="#70caa8" opacity="1" data-original="#70caa8"></circle><g fill="#373737"><path d="M54 34.527V4a4 4 0 0 0-4-4H10a4 4 0 0 0-4 4v30.512q-.488.339-.946.719a1 1 0 0 0 1.279 1.538A11.993 11.993 0 1 1 3.846 39.6a1 1 0 0 0-1.692-1.069A14 14 0 1 0 28 46a13.884 13.884 0 0 0-.16-2h4.32A13.993 13.993 0 1 0 54 34.527zM10 2h40a2 2 0 0 1 2 2v4H8V4a2 2 0 0 1 2-2zm17.41 40A14.04 14.04 0 0 0 17 32.332V13a1 1 0 0 0-2 0v19.051c-.332-.024-.662-.051-1-.051a14.022 14.022 0 0 0-6 1.357V10h44v23.37A13.952 13.952 0 0 0 32.59 42zM46 58a12 12 0 1 1 12-12 12.013 12.013 0 0 1-12 12z" fill="#373737" opacity="1" data-original="#373737"></path><path d="M8.293 51.707a1 1 0 0 0 1.414 0L14 47.414l4.293 4.293a1 1 0 0 0 1.414-1.414L15.414 46l4.293-4.293a1 1 0 0 0-1.414-1.414L14 44.586l-4.293-4.293a1 1 0 0 0-1.414 1.414L12.586 46l-4.293 4.293a1 1 0 0 0 0 1.414zM50.181 40.427l-6.317 9.023-2.157-2.157a1 1 0 0 0-1.414 1.414l3 3A1 1 0 0 0 44 52a.844.844 0 0 0 .087 0 1 1 0 0 0 .732-.423l7-10a1 1 0 1 0-1.638-1.146zM11 6h1a1 1 0 0 0 0-2h-1a1 1 0 0 0 0 2zM16 6h1a1 1 0 0 0 0-2h-1a1 1 0 0 0 0 2zM21 6h1a1 1 0 0 0 0-2h-1a1 1 0 0 0 0 2zM12 12h-1a1 1 0 0 0 0 2h1a1 1 0 0 0 0-2zM12 16h-1a1 1 0 0 0 0 2h1a1 1 0 0 0 0-2zM46 18h2a1 1 0 0 0 0-2h-2a1 1 0 0 0 0 2zM12 20h-1a1 1 0 0 0 0 2h1a1 1 0 0 0 0-2zM12 24h-1a1 1 0 0 0 0 2h1a1 1 0 0 0 0-2zM12 28h-1a1 1 0 0 0 0 2h1a1 1 0 0 0 0-2zM43 6h6a1 1 0 0 0 0-2h-6a1 1 0 0 0 0 2zM20 14h10a1 1 0 0 0 0-2H20a1 1 0 0 0 0 2zM21 17a1 1 0 0 0 1 1h10a1 1 0 0 0 0-2H22a1 1 0 0 0-1 1zM36 18h6a1 1 0 0 0 0-2h-6a1 1 0 0 0 0 2zM39 21a1 1 0 0 0-1-1H23a1 1 0 0 0 0 2h15a1 1 0 0 0 1-1zM31 25a1 1 0 0 0-1-1H20a1 1 0 0 0 0 2h10a1 1 0 0 0 1-1zM33 29a1 1 0 0 0-1-1H22a1 1 0 0 0 0 2h10a1 1 0 0 0 1-1zM42 28h-6a1 1 0 0 0 0 2h6a1 1 0 0 0 0-2zM37 33a1 1 0 0 0-1-1H25a1 1 0 0 0 0 2h11a1 1 0 0 0 1-1z" fill="#373737" opacity="1" data-original="#373737"></path></g></g></svg>